<svg width="38" height="38" viewBox="0 0 38 38" fill="none" xmlns="http://www.w3.org/2000/svg">
<path d="M2.375 33.8438C2.375 34.3162 2.56267 34.7692 2.89672 35.1033C3.23077 35.4373 3.68383 35.625 4.15625 35.625H33.8438C34.3162 35.625 34.7692 35.4373 35.1033 35.1033C35.4373 34.7692 35.625 34.3162 35.625 33.8438V13.0625H2.375V33.8438ZM26.125 15.7344C26.125 15.6556 26.1563 15.5801 26.212 15.5245C26.2676 15.4688 26.3431 15.4375 26.4219 15.4375H29.3906C29.4694 15.4375 29.5449 15.4688 29.6005 15.5245C29.6562 15.5801 29.6875 15.6556 29.6875 15.7344V18.7031C29.6875 18.7819 29.6562 18.8574 29.6005 18.913C29.5449 18.9687 29.4694 19 29.3906 19H26.4219C26.3431 19 26.2676 18.9687 26.212 18.913C26.1563 18.8574 26.125 18.7819 26.125 18.7031V15.7344ZM26.125 21.6719C26.125 21.5931 26.1563 21.5176 26.212 21.462C26.2676 21.4063 26.3431 21.375 26.4219 21.375H29.3906C29.4694 21.375 29.5449 21.4063 29.6005 21.462C29.6562 21.5176 29.6875 21.5931 29.6875 21.6719V24.6406C29.6875 24.7194 29.6562 24.7949 29.6005 24.8505C29.5449 24.9062 29.4694 24.9375 29.3906 24.9375H26.4219C26.3431 24.9375 26.2676 24.9062 26.212 24.8505C26.1563 24.7949 26.125 24.7194 26.125 24.6406V21.6719ZM20.1875 15.7344C20.1875 15.6556 20.2188 15.5801 20.2745 15.5245C20.3301 15.4688 20.4056 15.4375 20.4844 15.4375H23.4531C23.5319 15.4375 23.6074 15.4688 23.663 15.5245C23.7187 15.5801 23.75 15.6556 23.75 15.7344V18.7031C23.75 18.7819 23.7187 18.8574 23.663 18.913C23.6074 18.9687 23.5319 19 23.4531 19H20.4844C20.4056 19 20.3301 18.9687 20.2745 18.913C20.2188 18.8574 20.1875 18.7819 20.1875 18.7031V15.7344ZM20.1875 21.6719C20.1875 21.5931 20.2188 21.5176 20.2745 21.462C20.3301 21.4063 20.4056 21.375 20.4844 21.375H23.4531C23.5319 21.375 23.6074 21.4063 23.663 21.462C23.7187 21.5176 23.75 21.5931 23.75 21.6719V24.6406C23.75 24.7194 23.7187 24.7949 23.663 24.8505C23.6074 24.9062 23.5319 24.9375 23.4531 24.9375H20.4844C20.4056 24.9375 20.3301 24.9062 20.2745 24.8505C20.2188 24.7949 20.1875 24.7194 20.1875 24.6406V21.6719ZM20.1875 27.6094C20.1875 27.5306 20.2188 27.4551 20.2745 27.3995C20.3301 27.3438 20.4056 27.3125 20.4844 27.3125H23.4531C23.5319 27.3125 23.6074 27.3438 23.663 27.3995C23.7187 27.4551 23.75 27.5306 23.75 27.6094V30.5781C23.75 30.6569 23.7187 30.7324 23.663 30.788C23.6074 30.8437 23.5319 30.875 23.4531 30.875H20.4844C20.4056 30.875 20.3301 30.8437 20.2745 30.788C20.2188 30.7324 20.1875 30.6569 20.1875 30.5781V27.6094ZM14.25 21.6719C14.25 21.5931 14.2813 21.5176 14.337 21.462C14.3926 21.4063 14.4681 21.375 14.5469 21.375H17.5156C17.5944 21.375 17.6699 21.4063 17.7255 21.462C17.7812 21.5176 17.8125 21.5931 17.8125 21.6719V24.6406C17.8125 24.7194 17.7812 24.7949 17.7255 24.8505C17.6699 24.9062 17.5944 24.9375 17.5156 24.9375H14.5469C14.4681 24.9375 14.3926 24.9062 14.337 24.8505C14.2813 24.7949 14.25 24.7194 14.25 24.6406V21.6719ZM14.25 27.6094C14.25 27.5306 14.2813 27.4551 14.337 27.3995C14.3926 27.3438 14.4681 27.3125 14.5469 27.3125H17.5156C17.5944 27.3125 17.6699 27.3438 17.7255 27.3995C17.7812 27.4551 17.8125 27.5306 17.8125 27.6094V30.5781C17.8125 30.6569 17.7812 30.7324 17.7255 30.788C17.6699 30.8437 17.5944 30.875 17.5156 30.875H14.5469C14.4681 30.875 14.3926 30.8437 14.337 30.788C14.2813 30.7324 14.25 30.6569 14.25 30.5781V27.6094ZM8.3125 21.6719C8.3125 21.5931 8.34378 21.5176 8.39945 21.462C8.45513 21.4063 8.53064 21.375 8.60938 21.375H11.5781C11.6569 21.375 11.7324 21.4063 11.788 21.462C11.8437 21.5176 11.875 21.5931 11.875 21.6719V24.6406C11.875 24.7194 11.8437 24.7949 11.788 24.8505C11.7324 24.9062 11.6569 24.9375 11.5781 24.9375H8.60938C8.53064 24.9375 8.45513 24.9062 8.39945 24.8505C8.34378 24.7949 8.3125 24.7194 8.3125 24.6406V21.6719ZM8.3125 27.6094C8.3125 27.5306 8.34378 27.4551 8.39945 27.3995C8.45513 27.3438 8.53064 27.3125 8.60938 27.3125H11.5781C11.6569 27.3125 11.7324 27.3438 11.788 27.3995C11.8437 27.4551 11.875 27.5306 11.875 27.6094V30.5781C11.875 30.6569 11.8437 30.7324 11.788 30.788C11.7324 30.8437 11.6569 30.875 11.5781 30.875H8.60938C8.53064 30.875 8.45513 30.8437 8.39945 30.788C8.34378 30.7324 8.3125 30.6569 8.3125 30.5781V27.6094ZM33.8438 4.75H29.6934V2.375H26.1309V4.75H11.8691V2.375H8.30656V4.75H4.15625C3.92322 4.74804 3.69211 4.79221 3.47623 4.87996C3.26035 4.96772 3.06397 5.09732 2.8984 5.26131C2.73282 5.42529 2.60134 5.62042 2.51151 5.83544C2.42168 6.05047 2.37529 6.28114 2.375 6.51418V10.6875H35.625V6.51418C35.6247 6.28114 35.5783 6.05047 35.4885 5.83544C35.3987 5.62042 35.2672 5.42529 35.1016 5.26131C34.936 5.09732 34.7396 4.96772 34.5238 4.87996C34.3079 4.79221 34.0768 4.74804 33.8438 4.75Z" fill="#E0ECFF"/>
</svg>
