<svg width="48" height="48" viewBox="0 0 48 48" fill="none" xmlns="http://www.w3.org/2000/svg">
<path d="M3 42.75C3 43.3467 3.23705 43.919 3.65901 44.341C4.08097 44.7629 4.65326 45 5.25 45H42.75C43.3467 45 43.919 44.7629 44.341 44.341C44.7629 43.919 45 43.3467 45 42.75V16.5H3V42.75ZM33 19.875C33 19.7755 33.0395 19.6802 33.1098 19.6098C33.1802 19.5395 33.2755 19.5 33.375 19.5H37.125C37.2245 19.5 37.3198 19.5395 37.3902 19.6098C37.4605 19.6802 37.5 19.7755 37.5 19.875V23.625C37.5 23.7245 37.4605 23.8198 37.3902 23.8902C37.3198 23.9605 37.2245 24 37.125 24H33.375C33.2755 24 33.1802 23.9605 33.1098 23.8902C33.0395 23.8198 33 23.7245 33 23.625V19.875ZM33 27.375C33 27.2755 33.0395 27.1802 33.1098 27.1098C33.1802 27.0395 33.2755 27 33.375 27H37.125C37.2245 27 37.3198 27.0395 37.3902 27.1098C37.4605 27.1802 37.5 27.2755 37.5 27.375V31.125C37.5 31.2245 37.4605 31.3198 37.3902 31.3902C37.3198 31.4605 37.2245 31.5 37.125 31.5H33.375C33.2755 31.5 33.1802 31.4605 33.1098 31.3902C33.0395 31.3198 33 31.2245 33 31.125V27.375ZM25.5 19.875C25.5 19.7755 25.5395 19.6802 25.6098 19.6098C25.6802 19.5395 25.7755 19.5 25.875 19.5H29.625C29.7245 19.5 29.8198 19.5395 29.8902 19.6098C29.9605 19.6802 30 19.7755 30 19.875V23.625C30 23.7245 29.9605 23.8198 29.8902 23.8902C29.8198 23.9605 29.7245 24 29.625 24H25.875C25.7755 24 25.6802 23.9605 25.6098 23.8902C25.5395 23.8198 25.5 23.7245 25.5 23.625V19.875ZM25.5 27.375C25.5 27.2755 25.5395 27.1802 25.6098 27.1098C25.6802 27.0395 25.7755 27 25.875 27H29.625C29.7245 27 29.8198 27.0395 29.8902 27.1098C29.9605 27.1802 30 27.2755 30 27.375V31.125C30 31.2245 29.9605 31.3198 29.8902 31.3902C29.8198 31.4605 29.7245 31.5 29.625 31.5H25.875C25.7755 31.5 25.6802 31.4605 25.6098 31.3902C25.5395 31.3198 25.5 31.2245 25.5 31.125V27.375ZM25.5 34.875C25.5 34.7755 25.5395 34.6802 25.6098 34.6098C25.6802 34.5395 25.7755 34.5 25.875 34.5H29.625C29.7245 34.5 29.8198 34.5395 29.8902 34.6098C29.9605 34.6802 30 34.7755 30 34.875V38.625C30 38.7245 29.9605 38.8198 29.8902 38.8902C29.8198 38.9605 29.7245 39 29.625 39H25.875C25.7755 39 25.6802 38.9605 25.6098 38.8902C25.5395 38.8198 25.5 38.7245 25.5 38.625V34.875ZM18 27.375C18 27.2755 18.0395 27.1802 18.1098 27.1098C18.1802 27.0395 18.2755 27 18.375 27H22.125C22.2245 27 22.3198 27.0395 22.3902 27.1098C22.4605 27.1802 22.5 27.2755 22.5 27.375V31.125C22.5 31.2245 22.4605 31.3198 22.3902 31.3902C22.3198 31.4605 22.2245 31.5 22.125 31.5H18.375C18.2755 31.5 18.1802 31.4605 18.1098 31.3902C18.0395 31.3198 18 31.2245 18 31.125V27.375ZM18 34.875C18 34.7755 18.0395 34.6802 18.1098 34.6098C18.1802 34.5395 18.2755 34.5 18.375 34.5H22.125C22.2245 34.5 22.3198 34.5395 22.3902 34.6098C22.4605 34.6802 22.5 34.7755 22.5 34.875V38.625C22.5 38.7245 22.4605 38.8198 22.3902 38.8902C22.3198 38.9605 22.2245 39 22.125 39H18.375C18.2755 39 18.1802 38.9605 18.1098 38.8902C18.0395 38.8198 18 38.7245 18 38.625V34.875ZM10.5 27.375C10.5 27.2755 10.5395 27.1802 10.6098 27.1098C10.6802 27.0395 10.7755 27 10.875 27H14.625C14.7245 27 14.8198 27.0395 14.8902 27.1098C14.9605 27.1802 15 27.2755 15 27.375V31.125C15 31.2245 14.9605 31.3198 14.8902 31.3902C14.8198 31.4605 14.7245 31.5 14.625 31.5H10.875C10.7755 31.5 10.6802 31.4605 10.6098 31.3902C10.5395 31.3198 10.5 31.2245 10.5 31.125V27.375ZM10.5 34.875C10.5 34.7755 10.5395 34.6802 10.6098 34.6098C10.6802 34.5395 10.7755 34.5 10.875 34.5H14.625C14.7245 34.5 14.8198 34.5395 14.8902 34.6098C14.9605 34.6802 15 34.7755 15 34.875V38.625C15 38.7245 14.9605 38.8198 14.8902 38.8902C14.8198 38.9605 14.7245 39 14.625 39H10.875C10.7755 39 10.6802 38.9605 10.6098 38.8902C10.5395 38.8198 10.5 38.7245 10.5 38.625V34.875ZM42.75 6H37.5075V3H33.0075V6H14.9925V3H10.4925V6H5.25C4.95565 5.99753 4.66372 6.05332 4.39103 6.16417C4.11834 6.27501 3.87027 6.43872 3.66113 6.64586C3.45199 6.853 3.2859 7.09948 3.17243 7.37109C3.05896 7.6427 3.00036 7.93408 3 8.22844V13.5H45V8.22844C44.9996 7.93408 44.941 7.6427 44.8276 7.37109C44.7141 7.09948 44.548 6.853 44.3389 6.64586C44.1297 6.43872 43.8817 6.27501 43.609 6.16417C43.3363 6.05332 43.0443 5.99753 42.75 6Z" fill="white"/>
</svg>
