<svg width="38" height="38" viewBox="0 0 38 38" fill="none" xmlns="http://www.w3.org/2000/svg">
<path d="M20.5833 14.25H29.2916L20.5833 5.54163V14.25ZM9.49992 3.16663H22.1666L31.6666 12.6666V31.6666C31.6666 32.5065 31.333 33.3119 30.7391 33.9058C30.1452 34.4997 29.3398 34.8333 28.4999 34.8333H9.49992C8.66007 34.8333 7.85461 34.4997 7.26075 33.9058C6.66688 33.3119 6.33325 32.5065 6.33325 31.6666V6.33329C6.33325 4.57579 7.74242 3.16663 9.49992 3.16663ZM11.0833 31.6666H14.2499V22.1666H11.0833V31.6666ZM17.4166 31.6666H20.5833V19H17.4166V31.6666ZM23.7499 31.6666H26.9166V25.3333H23.7499V31.6666Z" fill="#E0ECFF"/>
</svg>
