<svg width="36" height="41" viewBox="0 0 36 41" fill="none" xmlns="http://www.w3.org/2000/svg">
<path d="M24.25 4.33333V21H31.7208C32.1328 21.0001 32.5355 21.1223 32.878 21.3512C33.2206 21.5802 33.4875 21.9055 33.6452 22.2861C33.8028 22.6668 33.8441 23.0856 33.7637 23.4896C33.6834 23.8937 33.485 24.2649 33.1937 24.5562L19.4729 38.2771C19.0822 38.6676 18.5524 38.8871 18 38.8871C17.4476 38.8871 16.9178 38.6676 16.5271 38.2771L2.80625 24.5562C2.51498 24.2649 2.31663 23.8937 2.23628 23.4896C2.15593 23.0856 2.19719 22.6668 2.35483 22.2861C2.51248 21.9055 2.77944 21.5802 3.12196 21.3512C3.46448 21.1223 3.86718 21.0001 4.27916 21H11.75V4.33333C11.75 3.7808 11.9695 3.25089 12.3602 2.86019C12.7509 2.46949 13.2808 2.25 13.8333 2.25H22.1667C22.7192 2.25 23.2491 2.46949 23.6398 2.86019C24.0305 3.25089 24.25 3.7808 24.25 4.33333Z" stroke="black" stroke-width="3" stroke-linecap="round" stroke-linejoin="round"/>
</svg>
