<svg width="106" height="85" viewBox="0 0 106 85" fill="none" xmlns="http://www.w3.org/2000/svg">
<g clip-path="url(#clip0_426_2)">
<path d="M53 5.3125C51.6584 5.3125 50.3334 5.54492 49.0747 5.99316L2.61686 22.8105C1.04342 23.3916 -1.41318e-05 24.8857 -1.41318e-05 26.5625C-1.41318e-05 28.2393 1.04342 29.7334 2.61686 30.3145L12.2065 33.7842C9.4903 38.0674 7.94999 43.1309 7.94999 48.46V53.125C7.94999 57.8398 6.16124 62.7041 4.25655 66.5391C3.17999 68.6973 1.95436 70.8223 0.529986 72.7813C-1.41262e-05 73.4951 -0.149077 74.4248 0.149048 75.2715C0.447173 76.1182 1.1428 76.749 2.00405 76.9649L12.604 79.6211C13.2997 79.8037 14.045 79.6709 14.6578 79.2891C15.2706 78.9072 15.7012 78.2764 15.8337 77.5625C17.2581 70.457 16.5459 64.082 15.4859 59.5166C14.9559 57.1592 14.2437 54.752 13.25 52.5439V48.46C13.25 43.4463 14.9394 38.7148 17.8709 34.9297C20.0075 32.3564 22.7734 30.2813 26.0197 29.0029L52.0228 18.7598C53.3809 18.2285 54.9212 18.8926 55.4512 20.2539C55.9812 21.6152 55.3187 23.1592 53.9606 23.6904L27.9575 33.9336C25.9037 34.7471 24.0984 35.9922 22.6244 37.5195L49.0581 47.082C50.3169 47.5303 51.6419 47.7627 52.9834 47.7627C54.325 47.7627 55.65 47.5303 56.9087 47.082L103.383 30.3145C104.957 29.75 106 28.2393 106 26.5625C106 24.8857 104.957 23.3916 103.383 22.8105L56.9253 5.99316C55.6666 5.54492 54.3415 5.3125 53 5.3125ZM21.2 67.7344C21.2 73.5947 35.4437 79.6875 53 79.6875C70.5562 79.6875 84.8 73.5947 84.8 67.7344L82.2659 43.5957L58.714 52.1289C56.8756 52.793 54.9378 53.125 53 53.125C51.0622 53.125 49.1078 52.793 47.2859 52.1289L23.7341 43.5957L21.2 67.7344Z" fill="#DFEEFF"/>
</g>
<defs>
<clipPath id="clip0_426_2">
<rect width="106" height="85" fill="white"/>
</clipPath>
</defs>
</svg>
