<svg width="128" height="109" viewBox="0 0 128 109" fill="none" xmlns="http://www.w3.org/2000/svg">
<path d="M57.075 106.287L11.9 64.2896C10.85 63.3187 9.85 62.2732 8.925 61.2027H30.675C36.325 61.2027 41.425 57.8171 43.6 52.6141L46.225 46.3407L58.55 73.6001C59.5 75.7162 61.575 77.0854 63.9 77.1102C66.225 77.1351 68.35 75.8655 69.4 73.7993L80 52.6639L80.425 53.5103C82.8 58.2403 87.65 61.2276 92.95 61.2276H119.075C118.15 62.2981 117.15 63.3436 116.1 64.3145L70.925 106.287C69.05 108.029 66.575 109 64 109C61.425 109 58.95 108.029 57.075 106.287ZM125.925 49.2534H92.925C92.175 49.2534 91.475 48.8302 91.125 48.158L85.325 36.6319C84.3 34.6155 82.225 33.321 79.95 33.321C77.675 33.321 75.6 34.5906 74.575 36.6319L64.225 57.2445L51.475 28.8898C50.5 26.7239 48.3 25.3299 45.925 25.3796C43.55 25.4294 41.4 26.8484 40.475 29.064L32.525 48.0585C32.225 48.8053 31.475 49.2783 30.675 49.2783H4C3.35 49.2783 2.75 49.3779 2.175 49.5521C0.75 45.569 0 41.337 0 37.0302V35.5864C0 18.1852 12.625 3.34808 29.85 0.485218C41.25 -1.40676 52.85 2.30251 61 10.4181L64 13.4054L67 10.4181C75.15 2.30251 86.75 -1.40676 98.15 0.485218C115.375 3.34808 128 18.1852 128 35.5864V37.0302C128 41.2374 127.3 45.3699 125.925 49.2534Z" fill="black"/>
</svg>
