<svg width="38" height="38" viewBox="0 0 38 38" fill="none" xmlns="http://www.w3.org/2000/svg">
<g clip-path="url(#clip0_432_2)">
<path fill-rule="evenodd" clip-rule="evenodd" d="M31.874 5.00328C30.9832 4.1128 29.7753 3.61255 28.5158 3.61255C27.2562 3.61255 26.0483 4.1128 25.1575 5.00328L24.0381 6.12428L31.8756 13.9618L32.9934 12.8424C33.4346 12.4013 33.7845 11.8776 34.0233 11.3013C34.2621 10.7249 34.3849 10.1072 34.3849 9.48333C34.3849 8.85948 34.2621 8.24174 34.0233 7.66539C33.7845 7.08905 33.4346 6.56537 32.9934 6.12428L31.874 5.00328ZM29.6352 16.2006L21.7977 8.36312L7.40517 22.7572C7.09022 23.0722 6.8702 23.4694 6.77025 23.9035L5.141 30.9573C5.0803 31.2192 5.08726 31.4922 5.16124 31.7506C5.23521 32.009 5.37377 32.2444 5.56385 32.4344C5.75392 32.6245 5.98926 32.7631 6.2477 32.8371C6.50613 32.911 6.77914 32.918 7.041 32.8573L14.0963 31.2296C14.5299 31.1294 14.9265 30.9094 15.2411 30.5947L29.6352 16.2006Z" fill="#E0ECFF"/>
</g>
<defs>
<clipPath id="clip0_432_2">
<rect width="38" height="38" fill="white"/>
</clipPath>
</defs>
</svg>
