<svg width="50" height="50" viewBox="0 0 50 50" fill="none" xmlns="http://www.w3.org/2000/svg">
<path d="M43.1604 27.2083C43.7456 26.6223 44.0743 25.8281 44.0743 24.9999C44.0743 24.1718 43.7456 23.3775 43.1604 22.7916L31.3771 11.002C30.7909 10.4158 29.9957 10.0864 29.1667 10.0864C28.3376 10.0864 27.5425 10.4158 26.9563 11.002C26.37 11.5882 26.0407 12.3834 26.0407 13.2124C26.0407 14.0415 26.37 14.8366 26.9563 15.4228L33.4063 21.8749L9.37501 21.8749C8.54621 21.8749 7.75135 22.2042 7.1653 22.7902C6.57925 23.3763 6.25001 24.1711 6.25001 24.9999C6.25001 25.8287 6.57925 26.6236 7.1653 27.2096C7.75135 27.7957 8.54621 28.1249 9.37501 28.1249L33.4063 28.1249L26.9563 34.5749C26.666 34.8652 26.4357 35.2098 26.2786 35.5891C26.1215 35.9683 26.0407 36.3748 26.0407 36.7853C26.0407 37.1959 26.1215 37.6023 26.2786 37.9816C26.4357 38.3609 26.666 38.7055 26.9563 38.9958C27.2465 39.286 27.5911 39.5163 27.9704 39.6734C28.3497 39.8305 28.7562 39.9113 29.1667 39.9113C29.5772 39.9113 29.9837 39.8305 30.3629 39.6734C30.7422 39.5163 31.0868 39.286 31.3771 38.9958L43.1604 27.2083Z" fill="black"/>
</svg>
