<svg width="48" height="48" viewBox="0 0 48 48" fill="none" xmlns="http://www.w3.org/2000/svg">
<path fill-rule="evenodd" clip-rule="evenodd" d="M10 22C10 20.4241 10.3104 18.8637 10.9134 17.4078C11.5165 15.9519 12.4004 14.629 13.5147 13.5147C14.629 12.4004 15.9519 11.5165 17.4078 10.9134C18.8637 10.3104 20.4241 10 22 10C23.5759 10 25.1363 10.3104 26.5922 10.9134C28.0481 11.5165 29.371 12.4004 30.4853 13.5147C31.5996 14.629 32.4835 15.9519 33.0866 17.4078C33.6896 18.8637 34 20.4241 34 22C34 25.1826 32.7357 28.2348 30.4853 30.4853C28.2348 32.7357 25.1826 34 22 34C18.8174 34 15.7652 32.7357 13.5147 30.4853C11.2643 28.2348 10 25.1826 10 22ZM22 6C19.4537 6.00036 16.9443 6.60844 14.6803 7.77368C12.4163 8.93892 10.4631 10.6277 8.98297 12.6996C7.50288 14.7715 6.53867 17.1668 6.17046 19.6863C5.80225 22.2058 6.04069 24.7768 6.86595 27.1857C7.69121 29.5945 9.07947 31.7716 10.9153 33.536C12.7512 35.3004 14.9817 36.6012 17.4214 37.3302C19.861 38.0592 22.4395 38.1954 24.9424 37.7275C27.4453 37.2596 29.8004 36.2011 31.812 34.64L38.586 41.414C38.9632 41.7783 39.4684 41.9799 39.9928 41.9753C40.5172 41.9708 41.0188 41.7605 41.3896 41.3896C41.7605 41.0188 41.9708 40.5172 41.9753 39.9928C41.9799 39.4684 41.7783 38.9632 41.414 38.586L34.64 31.812C36.4762 29.4469 37.6119 26.614 37.918 23.6355C38.224 20.657 37.6882 17.6524 36.3714 14.9633C35.0545 12.2742 33.0096 10.0086 30.469 8.42405C27.9284 6.83952 24.9942 5.99967 22 6ZM22 30C24.1217 30 26.1566 29.1571 27.6569 27.6569C29.1571 26.1566 30 24.1217 30 22C30 19.8783 29.1571 17.8434 27.6569 16.3431C26.1566 14.8429 24.1217 14 22 14C19.8783 14 17.8434 14.8429 16.3431 16.3431C14.8429 17.8434 14 19.8783 14 22C14 24.1217 14.8429 26.1566 16.3431 27.6569C17.8434 29.1571 19.8783 30 22 30Z" fill="white"/>
</svg>
