<svg width="35" height="35" viewBox="0 0 35 35" fill="none" xmlns="http://www.w3.org/2000/svg">
<path fill-rule="evenodd" clip-rule="evenodd" d="M23.8073 21.7277L31.6531 29.5735C31.9289 29.8495 32.0837 30.2237 32.0836 30.6138C32.0835 31.0039 31.9284 31.378 31.6524 31.6538C31.3764 31.9296 31.0022 32.0844 30.6121 32.0843C30.222 32.0842 29.8479 31.929 29.5721 31.6531L21.7263 23.8072C19.3808 25.6239 16.4315 26.4787 13.4781 26.198C10.5248 25.9172 7.7893 24.5219 5.82821 22.2958C3.86712 20.0698 2.8277 17.1803 2.92142 14.2151C3.01513 11.2499 4.23494 8.43183 6.33268 6.33409C8.43043 4.23634 11.2485 3.01653 14.2137 2.92282C17.1789 2.82911 20.0684 3.86852 22.2944 5.82961C24.5205 7.79071 25.9158 10.5262 26.1966 13.4795C26.4773 16.4329 25.6225 19.3822 23.8058 21.7277H23.8073ZM14.5833 23.3333C16.904 23.3333 19.1296 22.4114 20.7705 20.7705C22.4115 19.1295 23.3333 16.9039 23.3333 14.5833C23.3333 12.2626 22.4115 10.037 20.7705 8.3961C19.1296 6.75516 16.904 5.83329 14.5833 5.83329C12.2627 5.83329 10.0371 6.75516 8.39616 8.3961C6.75521 10.037 5.83334 12.2626 5.83334 14.5833C5.83334 16.9039 6.75521 19.1295 8.39616 20.7705C10.0371 22.4114 12.2627 23.3333 14.5833 23.3333Z" fill="#9B9B9B"/>
</svg>
