<svg width="142" height="26" viewBox="0 0 142 26" fill="none" xmlns="http://www.w3.org/2000/svg">
<path d="M6.14 20.24C5.11333 20.24 4.20667 20.0667 3.42 19.72C2.63333 19.36 2.01333 18.8533 1.56 18.2C1.10667 17.5333 0.873333 16.7267 0.86 15.78H3.56C3.58667 16.4333 3.82 16.9867 4.26 17.44C4.71333 17.88 5.33333 18.1 6.12 18.1C6.8 18.1 7.34 17.94 7.74 17.62C8.14 17.2867 8.34 16.8467 8.34 16.3C8.34 15.7267 8.16 15.28 7.8 14.96C7.45333 14.64 6.98667 14.38 6.4 14.18C5.81333 13.98 5.18667 13.7667 4.52 13.54C3.44 13.1667 2.61333 12.6867 2.04 12.1C1.48 11.5133 1.2 10.7333 1.2 9.76C1.18667 8.93333 1.38 8.22667 1.78 7.64C2.19333 7.04 2.75333 6.58 3.46 6.26C4.16667 5.92667 4.98 5.76 5.9 5.76C6.83333 5.76 7.65333 5.92667 8.36 6.26C9.08 6.59333 9.64 7.06 10.04 7.66C10.4533 8.26 10.6733 8.97333 10.7 9.8H7.96C7.94667 9.30667 7.75333 8.87333 7.38 8.5C7.02 8.11333 6.51333 7.92 5.86 7.92C5.3 7.90667 4.82667 8.04667 4.44 8.34C4.06667 8.62 3.88 9.03333 3.88 9.58C3.88 10.0467 4.02667 10.42 4.32 10.7C4.61333 10.9667 5.01333 11.1933 5.52 11.38C6.02667 11.5667 6.60667 11.7667 7.26 11.98C7.95333 12.22 8.58667 12.5 9.16 12.82C9.73333 13.14 10.1933 13.5667 10.54 14.1C10.8867 14.62 11.06 15.2933 11.06 16.12C11.06 16.8533 10.8733 17.5333 10.5 18.16C10.1267 18.7867 9.57333 19.2933 8.84 19.68C8.10667 20.0533 7.20667 20.24 6.14 20.24ZM17.6536 20C16.6136 20 15.7803 19.7467 15.1536 19.24C14.5269 18.7333 14.2136 17.8333 14.2136 16.54V12.22H12.5136V10.08H14.2136L14.5136 7.42H16.7736V10.08H19.4536V12.22H16.7736V16.56C16.7736 17.04 16.8736 17.3733 17.0736 17.56C17.2869 17.7333 17.6469 17.82 18.1536 17.82H19.3936V20H17.6536ZM25.3716 20.24C24.1316 20.24 23.1716 19.8533 22.4916 19.08C21.8249 18.3067 21.4916 17.1733 21.4916 15.68V10.08H24.0316V15.44C24.0316 16.2933 24.2049 16.9467 24.5516 17.4C24.8982 17.8533 25.4449 18.08 26.1916 18.08C26.8982 18.08 27.4782 17.8267 27.9316 17.32C28.3982 16.8133 28.6316 16.1067 28.6316 15.2V10.08H31.1916V20H28.9316L28.7316 18.32C28.4249 18.9067 27.9782 19.3733 27.3916 19.72C26.8182 20.0667 26.1449 20.24 25.3716 20.24ZM38.3795 20.24C37.4462 20.24 36.6129 20.0133 35.8795 19.56C35.1462 19.1067 34.5662 18.4867 34.1395 17.7C33.7129 16.9133 33.4995 16.02 33.4995 15.02C33.4995 14.02 33.7129 13.1333 34.1395 12.36C34.5662 11.5733 35.1462 10.96 35.8795 10.52C36.6129 10.0667 37.4462 9.84 38.3795 9.84C39.1262 9.84 39.7795 9.98 40.3395 10.26C40.8995 10.54 41.3529 10.9333 41.6995 11.44V5.6H44.2595V20H41.9795L41.6995 18.58C41.3795 19.02 40.9529 19.4067 40.4195 19.74C39.8995 20.0733 39.2195 20.24 38.3795 20.24ZM38.9195 18C39.7462 18 40.4195 17.7267 40.9395 17.18C41.4729 16.62 41.7395 15.9067 41.7395 15.04C41.7395 14.1733 41.4729 13.4667 40.9395 12.92C40.4195 12.36 39.7462 12.08 38.9195 12.08C38.1062 12.08 37.4329 12.3533 36.8995 12.9C36.3662 13.4467 36.0995 14.1533 36.0995 15.02C36.0995 15.8867 36.3662 16.6 36.8995 17.16C37.4329 17.72 38.1062 18 38.9195 18ZM51.6864 20.24C50.6864 20.24 49.7997 20.0267 49.0264 19.6C48.2531 19.1733 47.6464 18.5733 47.2064 17.8C46.7664 17.0267 46.5464 16.1333 46.5464 15.12C46.5464 14.0933 46.7597 13.18 47.1864 12.38C47.6264 11.58 48.2264 10.96 48.9864 10.52C49.7597 10.0667 50.6664 9.84 51.7064 9.84C52.6797 9.84 53.5397 10.0533 54.2864 10.48C55.0331 10.9067 55.6131 11.4933 56.0264 12.24C56.4531 12.9733 56.6664 13.7933 56.6664 14.7C56.6664 14.8467 56.6597 15 56.6464 15.16C56.6464 15.32 56.6397 15.4867 56.6264 15.66H49.0864C49.1397 16.4333 49.4064 17.04 49.8864 17.48C50.3797 17.92 50.9731 18.14 51.6664 18.14C52.1864 18.14 52.6197 18.0267 52.9664 17.8C53.3264 17.56 53.5931 17.2533 53.7664 16.88H56.3664C56.1797 17.5067 55.8664 18.08 55.4264 18.6C54.9997 19.1067 54.4664 19.5067 53.8264 19.8C53.1997 20.0933 52.4864 20.24 51.6864 20.24ZM51.7064 11.92C51.0797 11.92 50.5264 12.1 50.0464 12.46C49.5664 12.8067 49.2597 13.34 49.1264 14.06H54.0664C54.0264 13.4067 53.7864 12.8867 53.3464 12.5C52.9064 12.1133 52.3597 11.92 51.7064 11.92ZM58.8195 20V10.08H61.0795L61.2795 11.76C61.5862 11.1733 62.0262 10.7067 62.5995 10.36C63.1862 10.0133 63.8729 9.84 64.6595 9.84C65.8862 9.84 66.8395 10.2267 67.5195 11C68.1995 11.7733 68.5395 12.9067 68.5395 14.4V20H65.9795V14.64C65.9795 13.7867 65.8062 13.1333 65.4595 12.68C65.1129 12.2267 64.5729 12 63.8395 12C63.1195 12 62.5262 12.2533 62.0595 12.76C61.6062 13.2667 61.3795 13.9733 61.3795 14.88V20H58.8195ZM75.4075 20C74.3675 20 73.5342 19.7467 72.9075 19.24C72.2808 18.7333 71.9675 17.8333 71.9675 16.54V12.22H70.2675V10.08H71.9675L72.2675 7.42H74.5275V10.08H77.2075V12.22H74.5275V16.56C74.5275 17.04 74.6275 17.3733 74.8275 17.56C75.0408 17.7333 75.4008 17.82 75.9075 17.82H77.1475V20H75.4075ZM84.2311 20V6H89.4111C90.5311 6 91.4578 6.18667 92.1911 6.56C92.9244 6.93333 93.4711 7.44667 93.8311 8.1C94.1911 8.75333 94.3711 9.48667 94.3711 10.3C94.3711 11.0733 94.1978 11.7867 93.8511 12.44C93.5044 13.08 92.9644 13.6 92.2311 14C91.4978 14.3867 90.5578 14.58 89.4111 14.58H86.7911V20H84.2311ZM86.7911 12.5H89.2511C90.1444 12.5 90.7844 12.3067 91.1711 11.92C91.5711 11.52 91.7711 10.98 91.7711 10.3C91.7711 9.60667 91.5711 9.06667 91.1711 8.68C90.7844 8.28 90.1444 8.08 89.2511 8.08H86.7911V12.5ZM115.382 20V5.6H117.942V20H115.382ZM124.658 20.24C123.778 20.24 123.004 20.1 122.338 19.82C121.671 19.5267 121.138 19.1267 120.738 18.62C120.338 18.1133 120.098 17.5267 120.018 16.86H122.598C122.678 17.2467 122.891 17.58 123.238 17.86C123.598 18.1267 124.058 18.26 124.618 18.26C125.178 18.26 125.584 18.1467 125.838 17.92C126.104 17.6933 126.238 17.4333 126.238 17.14C126.238 16.7133 126.051 16.4267 125.678 16.28C125.304 16.12 124.784 15.9667 124.118 15.82C123.691 15.7267 123.258 15.6133 122.818 15.48C122.378 15.3467 121.971 15.18 121.598 14.98C121.238 14.7667 120.944 14.5 120.718 14.18C120.491 13.8467 120.378 13.44 120.378 12.96C120.378 12.08 120.724 11.34 121.418 10.74C122.124 10.14 123.111 9.84 124.378 9.84C125.551 9.84 126.484 10.1133 127.178 10.66C127.884 11.2067 128.304 11.96 128.438 12.92H126.018C125.871 12.1867 125.318 11.82 124.358 11.82C123.878 11.82 123.504 11.9133 123.238 12.1C122.984 12.2867 122.858 12.52 122.858 12.8C122.858 13.0933 123.051 13.3267 123.438 13.5C123.824 13.6733 124.338 13.8333 124.978 13.98C125.671 14.14 126.304 14.32 126.878 14.52C127.464 14.7067 127.931 14.9933 128.278 15.38C128.624 15.7533 128.798 16.2933 128.798 17C128.811 17.6133 128.651 18.1667 128.318 18.66C127.984 19.1533 127.504 19.54 126.878 19.82C126.251 20.1 125.511 20.24 124.658 20.24ZM135.886 20.24C134.886 20.24 133.999 20.0267 133.226 19.6C132.452 19.1733 131.846 18.5733 131.406 17.8C130.966 17.0267 130.746 16.1333 130.746 15.12C130.746 14.0933 130.959 13.18 131.386 12.38C131.826 11.58 132.426 10.96 133.186 10.52C133.959 10.0667 134.866 9.84 135.906 9.84C136.879 9.84 137.739 10.0533 138.486 10.48C139.232 10.9067 139.812 11.4933 140.226 12.24C140.652 12.9733 140.866 13.7933 140.866 14.7C140.866 14.8467 140.859 15 140.846 15.16C140.846 15.32 140.839 15.4867 140.826 15.66H133.286C133.339 16.4333 133.606 17.04 134.086 17.48C134.579 17.92 135.172 18.14 135.866 18.14C136.386 18.14 136.819 18.0267 137.166 17.8C137.526 17.56 137.792 17.2533 137.966 16.88H140.566C140.379 17.5067 140.066 18.08 139.626 18.6C139.199 19.1067 138.666 19.5067 138.026 19.8C137.399 20.0933 136.686 20.24 135.886 20.24ZM135.906 11.92C135.279 11.92 134.726 12.1 134.246 12.46C133.766 12.8067 133.459 13.34 133.326 14.06H138.266C138.226 13.4067 137.986 12.8867 137.546 12.5C137.106 12.1133 136.559 11.92 135.906 11.92Z" fill="#6392DD"/>
<g clip-path="url(#clip0_413_10)">
<path d="M103.526 20.4918L97.1734 14.5609C97.0258 14.4238 96.8852 14.2762 96.7551 14.125H99.8137C100.608 14.125 101.325 13.6469 101.631 12.9121L102 12.0262L103.734 15.8758C103.867 16.1746 104.159 16.368 104.486 16.3715C104.813 16.375 105.112 16.1957 105.259 15.9039L106.75 12.9191L106.81 13.0387C107.144 13.7066 107.826 14.1285 108.571 14.1285H112.245C112.115 14.2797 111.974 14.4274 111.827 14.5645L105.474 20.4918C105.21 20.7379 104.862 20.875 104.5 20.875C104.138 20.875 103.79 20.7379 103.526 20.4918ZM113.208 12.4375H108.568C108.462 12.4375 108.364 12.3777 108.314 12.2828L107.499 10.6551C107.355 10.3703 107.063 10.1875 106.743 10.1875C106.423 10.1875 106.131 10.3668 105.987 10.6551L104.532 13.566L102.739 9.56172C102.602 9.25586 102.292 9.05899 101.958 9.06602C101.624 9.07305 101.322 9.27344 101.192 9.58633L100.074 12.2688C100.032 12.3742 99.9262 12.441 99.8137 12.441H96.0625C95.9711 12.441 95.8867 12.4551 95.8059 12.4797C95.6055 11.9172 95.5 11.3195 95.5 10.7113V10.5074C95.5 8.05001 97.2754 5.95469 99.6977 5.5504C101.301 5.28321 102.932 5.80704 104.078 6.95313L104.5 7.37501L104.922 6.95313C106.068 5.80704 107.699 5.28321 109.302 5.5504C111.725 5.95469 113.5 8.05001 113.5 10.5074V10.7113C113.5 11.3055 113.402 11.8891 113.208 12.4375Z" fill="#6392DD"/>
</g>
<defs>
<clipPath id="clip0_413_10">
<rect width="18" height="18" fill="white" transform="translate(95.5 4)"/>
</clipPath>
</defs>
</svg>
