<svg width="50" height="50" viewBox="0 0 50 50" fill="none" xmlns="http://www.w3.org/2000/svg">
<path d="M18.75 41.6667L18.75 25H11.2792C10.8672 24.9999 10.4645 24.8777 10.122 24.6488C9.77943 24.4198 9.51247 24.0945 9.35483 23.7139C9.19718 23.3332 9.15592 22.9144 9.23627 22.5104C9.31662 22.1063 9.51497 21.7351 9.80624 21.4438L23.5271 7.72292C23.9178 7.33235 24.4476 7.11295 25 7.11295C25.5524 7.11295 26.0822 7.33235 26.4729 7.72292L40.1937 21.4438C40.485 21.7351 40.6834 22.1063 40.7637 22.5104C40.8441 22.9144 40.8028 23.3332 40.6452 23.7139C40.4875 24.0945 40.2205 24.4198 39.878 24.6488C39.5355 24.8777 39.1328 24.9999 38.7208 25H31.25V41.6667C31.25 42.2192 31.0305 42.7491 30.6398 43.1398C30.2491 43.5305 29.7192 43.75 29.1667 43.75H20.8333C20.2808 43.75 19.7509 43.5305 19.3602 43.1398C18.9695 42.7491 18.75 42.2192 18.75 41.6667Z" stroke="black" stroke-width="3" stroke-linecap="round" stroke-linejoin="round"/>
</svg>
